<svg width="16" height="16" viewBox="0 0 16 16" fill="none" xmlns="http://www.w3.org/2000/svg">
<path fill-rule="evenodd" clip-rule="evenodd" d="M7.99998 1.33337C4.31998 1.33337 1.33331 4.32004 1.33331 8.00004C1.33331 11.68 4.31998 14.6667 7.99998 14.6667C11.68 14.6667 14.6666 11.68 14.6666 8.00004C14.6666 4.32004 11.68 1.33337 7.99998 1.33337ZM6.99998 4.66671C6.99998 4.85337 6.85331 5.00004 6.66665 5.00004C6.47998 5.00004 6.33331 4.85337 6.33331 4.66671C6.33331 4.48004 6.47998 4.33337 6.66665 4.33337C6.85331 4.33337 6.99998 4.48004 6.99998 4.66671ZM5.99998 6.66667C5.99998 6.3 6.29998 6 6.66665 6C7.03331 6 7.33331 6.3 7.33331 6.66667C7.33331 7.03334 7.03331 7.33334 6.66665 7.33334C6.29998 7.33334 5.99998 7.03334 5.99998 6.66667ZM5.99998 9.33341C5.99998 8.96675 6.29998 8.66675 6.66665 8.66675C7.03331 8.66675 7.33331 8.96675 7.33331 9.33341C7.33331 9.70008 7.03331 10.0001 6.66665 10.0001C6.29998 10.0001 5.99998 9.70008 5.99998 9.33341ZM4.66665 6.33337C4.47998 6.33337 4.33331 6.48004 4.33331 6.66671C4.33331 6.85337 4.47998 7.00004 4.66665 7.00004C4.85331 7.00004 4.99998 6.85337 4.99998 6.66671C4.99998 6.48004 4.85331 6.33337 4.66665 6.33337ZM6.33331 11.3333C6.33331 11.1467 6.47998 11 6.66665 11C6.85331 11 6.99998 11.1467 6.99998 11.3333C6.99998 11.52 6.85331 11.6667 6.66665 11.6667C6.47998 11.6667 6.33331 11.52 6.33331 11.3333ZM4.66665 9C4.47998 9 4.33331 9.14667 4.33331 9.33334C4.33331 9.52 4.47998 9.66667 4.66665 9.66667C4.85331 9.66667 4.99998 9.52 4.99998 9.33334C4.99998 9.14667 4.85331 9 4.66665 9ZM9.33331 6C8.96665 6 8.66665 6.3 8.66665 6.66667C8.66665 7.03334 8.96665 7.33334 9.33331 7.33334C9.69998 7.33334 9.99998 7.03334 9.99998 6.66667C9.99998 6.3 9.69998 6 9.33331 6ZM9.66665 4.66671C9.66665 4.85337 9.51998 5.00004 9.33331 5.00004C9.14665 5.00004 8.99998 4.85337 8.99998 4.66671C8.99998 4.48004 9.14665 4.33337 9.33331 4.33337C9.51998 4.33337 9.66665 4.48004 9.66665 4.66671ZM11.3333 9C11.1466 9 11 9.14667 11 9.33334C11 9.52 11.1466 9.66667 11.3333 9.66667C11.52 9.66667 11.6666 9.52 11.6666 9.33334C11.6666 9.14667 11.52 9 11.3333 9ZM11 6.66671C11 6.48004 11.1466 6.33337 11.3333 6.33337C11.52 6.33337 11.6666 6.48004 11.6666 6.66671C11.6666 6.85337 11.52 7.00004 11.3333 7.00004C11.1466 7.00004 11 6.85337 11 6.66671ZM2.66665 8.00008C2.66665 10.9467 5.05331 13.3334 7.99998 13.3334C10.9466 13.3334 13.3333 10.9467 13.3333 8.00008C13.3333 5.05341 10.9466 2.66675 7.99998 2.66675C5.05331 2.66675 2.66665 5.05341 2.66665 8.00008ZM9.33331 11C9.14665 11 8.99998 11.1467 8.99998 11.3333C8.99998 11.52 9.14665 11.6667 9.33331 11.6667C9.51998 11.6667 9.66665 11.52 9.66665 11.3333C9.66665 11.1467 9.51998 11 9.33331 11ZM8.66665 9.33341C8.66665 8.96675 8.96665 8.66675 9.33331 8.66675C9.69998 8.66675 9.99998 8.96675 9.99998 9.33341C9.99998 9.70008 9.69998 10.0001 9.33331 10.0001C8.96665 10.0001 8.66665 9.70008 8.66665 9.33341Z" fill="#4B4D58"/>
</svg>
