<svg width="20" height="20" viewBox="0 0 20 20" fill="none" xmlns="http://www.w3.org/2000/svg">
<path fill-rule="evenodd" clip-rule="evenodd" d="M9.99998 6.66667C10.9166 6.66667 11.6666 5.91667 11.6666 5C11.6666 4.08334 10.9166 3.33334 9.99998 3.33334C9.08331 3.33334 8.33331 4.08334 8.33331 5C8.33331 5.91667 9.08331 6.66667 9.99998 6.66667ZM9.99998 8.33334C9.08331 8.33334 8.33331 9.08334 8.33331 10C8.33331 10.9167 9.08331 11.6667 9.99998 11.6667C10.9166 11.6667 11.6666 10.9167 11.6666 10C11.6666 9.08334 10.9166 8.33334 9.99998 8.33334ZM8.33331 15C8.33331 14.0833 9.08331 13.3333 9.99998 13.3333C10.9166 13.3333 11.6666 14.0833 11.6666 15C11.6666 15.9167 10.9166 16.6667 9.99998 16.6667C9.08331 16.6667 8.33331 15.9167 8.33331 15Z" fill="#09090B"/>
</svg>
