<svg width="16" height="16" viewBox="0 0 16 16" fill="none" xmlns="http://www.w3.org/2000/svg">
<path fill-rule="evenodd" clip-rule="evenodd" d="M8.00002 0.666656V2.66666C10.9467 2.66666 13.3334 5.05332 13.3334 7.99999C13.3334 9.04666 13.0267 10.02 12.5067 10.84L11.5334 9.86666C11.8334 9.31332 12 8.67332 12 7.99999C12 5.79332 10.2067 3.99999 8.00002 3.99999V5.99999L5.33335 3.33332L8.00002 0.666656ZM4.00002 7.99999C4.00002 10.2067 5.79335 12 8.00002 12V9.99999L10.6667 12.6667L8.00002 15.3333V13.3333C5.05335 13.3333 2.66669 10.9467 2.66669 7.99999C2.66669 6.95332 2.97335 5.97999 3.49335 5.15999L4.46669 6.13332C4.16669 6.68666 4.00002 7.32666 4.00002 7.99999Z" fill="#4B4D58"/>
</svg>
