<svg width="16" height="16" viewBox="0 0 16 16" fill="none" xmlns="http://www.w3.org/2000/svg">
<path fill-rule="evenodd" clip-rule="evenodd" d="M13.0015 8.00001C13.0015 8.22668 12.9815 8.44001 12.9548 8.65334L14.3615 9.75334C14.4881 9.85334 14.5215 10.0333 14.4415 10.18L13.1081 12.4867C13.0481 12.5933 12.9348 12.6533 12.8215 12.6533C12.7815 12.6533 12.7415 12.6467 12.7015 12.6333L11.0415 11.9667C10.6948 12.2267 10.3215 12.4533 9.91481 12.62L9.66148 14.3867C9.64148 14.5467 9.50148 14.6667 9.33481 14.6667H6.66815C6.50148 14.6667 6.36148 14.5467 6.34148 14.3867L6.08815 12.62C5.68148 12.4533 5.30815 12.2333 4.96148 11.9667L3.30148 12.6333C3.26815 12.6467 3.22815 12.6533 3.18815 12.6533C3.06815 12.6533 2.95481 12.5933 2.89481 12.4867L1.56148 10.18C1.48148 10.0333 1.51481 9.85334 1.64148 9.75334L3.04815 8.65334C3.02148 8.44001 3.00148 8.22001 3.00148 8.00001C3.00148 7.78001 3.02148 7.56001 3.04815 7.34668L1.64148 6.24668C1.51481 6.14668 1.47481 5.96668 1.56148 5.82001L2.89481 3.51334C2.95481 3.40668 3.06815 3.34668 3.18148 3.34668C3.22148 3.34668 3.26148 3.35334 3.30148 3.36668L4.96148 4.03334C5.30815 3.77334 5.68148 3.54668 6.08815 3.38001L6.34148 1.61334C6.36148 1.45334 6.50148 1.33334 6.66815 1.33334H9.33481C9.50148 1.33334 9.64148 1.45334 9.66148 1.61334L9.91481 3.38001C10.3215 3.54668 10.6948 3.76668 11.0415 4.03334L12.7015 3.36668C12.7348 3.35334 12.7748 3.34668 12.8148 3.34668C12.9348 3.34668 13.0481 3.40668 13.1081 3.51334L14.4415 5.82001C14.5215 5.96668 14.4881 6.14668 14.3615 6.24668L12.9548 7.34668C12.9815 7.56001 13.0015 7.77334 13.0015 8.00001ZM11.6681 8.00001C11.6681 7.86001 11.6615 7.72001 11.6348 7.51334L11.5415 6.76001L12.1348 6.29334L12.8481 5.72668L12.3815 4.92001L11.5348 5.26001L10.8281 5.54668L10.2215 5.08001C9.95481 4.88001 9.68815 4.72668 9.40148 4.60668L8.69481 4.32001L8.58815 3.56668L8.46148 2.66668H7.53481L7.40148 3.56668L7.29481 4.32001L6.58815 4.60668C6.31481 4.72001 6.04148 4.88001 5.75481 5.09334L5.15481 5.54668L4.46148 5.26668L3.61481 4.92668L3.14815 5.73334L3.86815 6.29334L4.46148 6.76001L4.36815 7.51334C4.34815 7.71334 4.33481 7.86668 4.33481 8.00001C4.33481 8.13334 4.34815 8.28668 4.36815 8.49334L4.46148 9.24668L3.86815 9.71334L3.14815 10.2733L3.61481 11.08L4.46148 10.74L5.16815 10.4533L5.77481 10.92C6.04148 11.12 6.30815 11.2733 6.59481 11.3933L7.30148 11.68L7.40815 12.4333L7.53481 13.3333H8.46815L8.60148 12.4333L8.70815 11.68L9.41481 11.3933C9.68815 11.28 9.96148 11.12 10.2481 10.9067L10.8481 10.4533L11.5415 10.7333L12.3881 11.0733L12.8548 10.2667L12.1348 9.70668L11.5415 9.24001L11.6348 8.48668C11.6548 8.28668 11.6681 8.14001 11.6681 8.00001ZM8.00148 5.33334C6.52815 5.33334 5.33481 6.52668 5.33481 8.00001C5.33481 9.47334 6.52815 10.6667 8.00148 10.6667C9.47481 10.6667 10.6681 9.47334 10.6681 8.00001C10.6681 6.52668 9.47481 5.33334 8.00148 5.33334ZM6.66815 8.00001C6.66815 8.73334 7.26815 9.33334 8.00148 9.33334C8.73481 9.33334 9.33481 8.73334 9.33481 8.00001C9.33481 7.26668 8.73481 6.66668 8.00148 6.66668C7.26815 6.66668 6.66815 7.26668 6.66815 8.00001Z" fill="#4B4D58"/>
</svg>
