<svg width="16" height="16" viewBox="0 0 16 16" fill="none" xmlns="http://www.w3.org/2000/svg">
<path fill-rule="evenodd" clip-rule="evenodd" d="M6 1.00337H10V2.33671H6V1.00337ZM7.33333 9.67V5.67H8.66667V9.67H7.33333ZM12.6867 5.2567L13.6333 4.31003C13.3467 3.97003 13.0333 3.65003 12.6933 3.37003L11.7467 4.3167C10.7133 3.49003 9.41333 2.9967 8 2.9967C4.68667 2.9967 2 5.68336 2 8.9967C2 12.31 4.68 14.9967 8 14.9967C11.32 14.9967 14 12.31 14 8.9967C14 7.59003 13.5067 6.29003 12.6867 5.2567ZM3.33333 9.00341C3.33333 11.5834 5.42 13.6701 8 13.6701C10.58 13.6701 12.6667 11.5834 12.6667 9.00341C12.6667 6.42341 10.58 4.33674 8 4.33674C5.42 4.33674 3.33333 6.42341 3.33333 9.00341Z" fill="#808593"/>
</svg>
